<svg width="14" height="13" viewBox="0 0 14 13" fill="none" xmlns="http://www.w3.org/2000/svg">
<path d="M5.9491 12.753L0.247022 7.0509C0.150958 6.98228 0.0857714 6.89994 0.0514628 6.80388C0.0171543 6.70781 0 6.60489 0 6.4951C0 6.38531 0.0171543 6.28582 0.0514628 6.19661C0.0857714 6.10741 0.150958 6.02164 0.247022 5.9393L5.96969 0.196049C6.12064 0.0588144 6.30248 -0.00637159 6.51519 0.000490124C6.7279 0.00735183 6.9166 0.0862614 7.08128 0.237219C7.21852 0.4019 7.28713 0.594028 7.28713 0.813603C7.28713 1.03318 7.21166 1.21844 7.0607 1.3694L2.73782 5.71286H12.5363C12.7559 5.71286 12.9412 5.78834 13.0921 5.9393C13.2431 6.09026 13.3186 6.27552 13.3186 6.4951C13.3186 6.7284 13.2431 6.92052 13.0921 7.07148C12.9412 7.22244 12.7559 7.29792 12.5363 7.29792H2.73782L7.10187 11.6414C7.2391 11.8061 7.30429 11.9948 7.29743 12.2075C7.29056 12.4202 7.21166 12.602 7.0607 12.753C6.89602 12.9177 6.70389 13 6.48431 13C6.26474 13 6.08634 12.9177 5.9491 12.753Z" fill="#141B14"/>
</svg>
