<svg width="16" height="10" viewBox="0 0 16 10" fill="none" xmlns="http://www.w3.org/2000/svg">
<path d="M16 4.67937C15.993 4.51203 15.9194 4.31864 15.7969 4.19666L11.7969 0.217966C11.5258 -0.0100499 11.0061 -0.104177 10.7031 0.159458C10.4047 0.419115 10.4136 0.922711 10.7109 1.1834L13.5234 3.97726H0.75C0.3358 3.97726 0 4.2916 0 4.67937C0 5.06713 0.3358 5.38149 0.75 5.38149H13.5234L10.7109 8.17536C10.455 8.41536 10.4077 8.93666 10.7031 9.19929C10.9985 9.46189 11.537 9.378 11.7969 9.14077L15.7969 5.16208C15.9337 5.02592 16.0004 4.86617 16 4.67937Z" fill="#41D28D"/>
</svg>
