<svg width="13" height="8" viewBox="0 0 13 8" fill="none" xmlns="http://www.w3.org/2000/svg">
<path d="M13 3.80198C12.9943 3.66603 12.9345 3.5089 12.835 3.40979L9.58496 0.177097C9.36473 -0.00816556 8.94243 -0.0846437 8.69629 0.12956C8.45384 0.340531 8.46105 0.749703 8.70258 0.96151L10.9877 3.23152L0.609375 3.23152C0.272837 3.23152 0 3.48693 0 3.80198C0 4.11704 0.272837 4.37246 0.609375 4.37246L10.9877 4.37246L8.70258 6.64248C8.49465 6.83748 8.45622 7.26104 8.69629 7.47442C8.9363 7.68779 9.37377 7.61963 9.58496 7.42687L12.835 4.19419C12.9462 4.08356 13.0004 3.95376 13 3.80198Z" fill="#11C770"/>
</svg>
