<svg width="12" height="10" viewBox="0 0 12 10" fill="none" xmlns="http://www.w3.org/2000/svg">
<path d="M11.8226 0.295456C11.7669 0.201836 11.7006 0.127528 11.6275 0.0768181C11.5544 0.0261082 11.476 0 11.3969 0C11.3177 0 11.2393 0.0261082 11.1663 0.0768181C11.0932 0.127528 11.0269 0.201836 10.9711 0.295456L7.1993 6.58816L4.6268 2.29314C4.57105 2.19952 4.50473 2.12521 4.43166 2.0745C4.35858 2.02379 4.2802 1.99768 4.20104 1.99768C4.12188 1.99768 4.0435 2.02379 3.97043 2.0745C3.89736 2.12521 3.83104 2.19952 3.77529 2.29314L0.177376 8.28619C0.121172 8.37904 0.076561 8.48952 0.0461174 8.61124C0.0156739 8.73295 0 8.86351 0 8.99537C0 9.12723 0.0156739 9.25778 0.0461174 9.3795C0.076561 9.50122 0.121172 9.61169 0.177376 9.70454C0.233122 9.79816 0.299444 9.87247 0.372517 9.92318C0.44559 9.97389 0.523968 10 0.603129 10C0.68229 10 0.760668 9.97389 0.833741 9.92318C0.906815 9.87247 0.973137 9.79816 1.02888 9.70454L4.20104 4.41068L6.77355 8.7057C6.8293 8.79932 6.89562 8.87363 6.96869 8.92434C7.04177 8.97505 7.12014 9.00116 7.1993 9.00116C7.27847 9.00116 7.35684 8.97505 7.42992 8.92434C7.50299 8.87363 7.56931 8.79932 7.62506 8.7057L11.8226 1.71381C11.8788 1.62096 11.9234 1.51048 11.9539 1.38876C11.9843 1.26705 12 1.13649 12 1.00463C12 0.872774 11.9843 0.74222 11.9539 0.620502C11.9234 0.498784 11.8788 0.388311 11.8226 0.295456Z" fill="#223323"/>
</svg>
