<svg width="13" height="13" viewBox="0 0 13 13" fill="none" xmlns="http://www.w3.org/2000/svg">
<path d="M8.35388 5.84673H13C12.6937 2.76332 10.2436 0.307035 7.16792 0V4.65779C7.7218 4.8603 8.15188 5.29146 8.35388 5.84673ZM8.47118 1.65276C9.77444 2.18844 10.817 3.23367 11.3514 4.5402H9.11629C8.93383 4.29849 8.71228 4.07638 8.47118 3.89347V1.65276ZM0 6.5C0 9.89045 2.57393 12.6734 5.86466 13V8.34221C5.10877 8.06784 4.5614 7.34925 4.5614 6.5C4.5614 5.65075 5.10877 4.93216 5.86466 4.65779V0C2.57393 0.326633 0 3.10955 0 6.5ZM4.5614 1.65276V3.9C3.7599 4.50101 3.25815 5.46131 3.25815 6.5C3.25815 7.53869 3.7599 8.49899 4.5614 9.10653V11.3538C2.63258 10.5764 1.30326 8.68844 1.30326 6.5C1.30326 4.31156 2.63258 2.42362 4.5614 1.65276ZM7.16792 8.34221V13C10.2436 12.693 12.6937 10.2367 13 7.15327H8.35388C8.15188 7.70854 7.7218 8.1397 7.16792 8.34221ZM8.47118 9.10653C8.71228 8.92362 8.93383 8.70804 9.11629 8.4598H11.3514C10.817 9.76633 9.77444 10.8116 8.47118 11.3472V9.10653Z" fill="#223323"/>
</svg>
