<svg width="11" height="10" viewBox="0 0 11 10" fill="none" xmlns="http://www.w3.org/2000/svg">
<path d="M10.8963 6.70784L10.9307 6.75717C11.0677 6.98132 10.995 7.25981 10.7713 7.40583L10.717 7.43708L5.7671 9.93708C5.62175 10.0105 5.44895 10.0197 5.29673 9.96461L5.2329 9.93708L0.282991 7.43708C0.0174649 7.30297 -0.078202 6.99857 0.0693126 6.75717C0.20629 6.53302 0.504785 6.44202 0.759323 6.53754L0.817189 6.56293L5.49945 8.92751L10.1828 6.56293C10.4294 6.4384 10.7357 6.50449 10.8963 6.70784ZM10.8963 4.70784L10.9307 4.75717C11.0677 4.98132 10.995 5.25981 10.7713 5.40582L10.717 5.43707L5.7671 7.93708C5.62175 8.01048 5.44895 8.01966 5.29673 7.9646L5.2329 7.93708L0.282991 5.43707C0.0174649 5.30297 -0.078202 4.99856 0.0693126 4.75717C0.20629 4.53302 0.504785 4.44202 0.759323 4.53754L0.817189 4.56293L5.49945 6.92751L10.1828 4.56293C10.4294 4.4384 10.7357 4.50449 10.8963 4.70784ZM5.2329 0.0629217C5.39901 -0.0209739 5.60099 -0.0209739 5.7671 0.0629217L10.717 2.56292C11.0942 2.75343 11.0942 3.24657 10.717 3.43707L5.7671 5.93707C5.60099 6.02097 5.39901 6.02097 5.2329 5.93707L0.282991 3.43707C-0.0941972 3.24657 -0.0941972 2.75343 0.282991 2.56292L5.2329 0.0629217ZM5.5 1.072L1.68252 3L5.49945 4.92751L9.31693 3L5.5 1.072Z" fill="#223323"/>
</svg>
